<svg fill="none" height="24" viewBox="0 0 24 24" width="24" xmlns="http://www.w3.org/2000/svg"><path d="m17.9461 11.4093-10.56563-8.25233c-.02761-.02174-.06079-.03524-.09573-.03897s-.07022.00247-.10179.01789c-.03158.01542-.05816.03943-.0767.06928s-.02829.06432-.02812.09946v1.81172c0 .11484.0539.22499.14297.29531l8.4375 6.58824-8.4375 6.5883c-.09141.0703-.14297.1805-.14297.2953v1.8118c0 .157.18047.2437.30234.1476l10.56563-8.2523c.0898-.0701.1624-.1597.2124-.262.0499-.1024.0759-.2148.0759-.3287s-.026-.2262-.0759-.3286c-.05-.1023-.1226-.1919-.2124-.262z" fill="#fff"/></svg>