<?xml version="1.0" encoding="UTF-8" standalone="no"?>
<!DOCTYPE svg PUBLIC "-//W3C//DTD SVG 1.1//EN" "http://www.w3.org/Graphics/SVG/1.1/DTD/svg11.dtd">
<svg width="100%" height="100%" viewBox="0 0 24 24" version="1.1" xmlns="http://www.w3.org/2000/svg" xmlns:xlink="http://www.w3.org/1999/xlink" xml:space="preserve" xmlns:serif="http://www.serif.com/" style="fill-rule:evenodd;clip-rule:evenodd;stroke-linejoin:round;stroke-miterlimit:2;">
    <g transform="matrix(1.50015,0,0,1.50015,6.70569,2.99911)">
        <path d="M6.819,10.041C6.992,10.277 7.076,10.568 7.056,10.862C7.035,11.156 6.911,11.433 6.707,11.641C6.503,11.85 6.232,11.976 5.944,11.997C5.656,12.018 5.371,11.932 5.14,11.755L0.343,6.857C0.123,6.628 0,6.321 0,6C0,5.679 0.123,5.372 0.343,5.143L5.14,0.245C5.371,0.068 5.656,-0.018 5.944,0.003C6.232,0.024 6.503,0.15 6.707,0.359C6.911,0.567 7.035,0.844 7.056,1.138C7.076,1.432 6.992,1.723 6.819,1.959L2.873,6L6.831,10.041L6.819,10.041Z" style="fill:rgb(55,65,81);fill-rule:nonzero;"/>
    </g>
</svg>
