<svg clip-rule="evenodd" fill-rule="evenodd" stroke-linejoin="round" stroke-miterlimit="1.41421" viewBox="0 0 50 50" xmlns="http://www.w3.org/2000/svg"><g fill-rule="nonzero" transform="scale(.0976562)"><path d="m482 292.25v-246.25c0-8.285-6.715-15-15-15h-76v-16c0-8.285-6.715-15-15-15s-15 6.715-15 15v16h-60v-16c0-8.285-6.715-15-15-15s-15 6.715-15 15v16h-60v-16c0-8.285-6.715-15-15-15s-15 6.715-15 15v16h-60v-16c0-8.285-6.715-15-15-15s-15 6.715-15 15v16h-76c-8.285 0-15 6.715-15 15v391c0 8.285 6.715 15 15 15h249.805c24.25 36.152 65.488 60 112.195 60 74.438 0 135-60.562 135-135 0-32.07-11.25-61.562-30-84.75zm-391-231.25v15c0 8.285 6.715 15 15 15s15-6.715 15-15v-15h60v15c0 8.285 6.715 15 15 15s15-6.715 15-15v-15h60v15c0 8.285 6.715 15 15 15s15-6.715 15-15v-15h60v15c0 8.285 6.715 15 15 15s15-6.715 15-15v-15h61v60h-422v-60zm-61 361v-271h422v113.805c-21.465-14.395-47.27-22.805-75-22.805-47.398 0-89.164 24.559-113.258 61.613-2.027-1.023-4.312-1.613-6.742-1.613h-30c-8.285 0-15 6.715-15 15s6.715 15 15 15h22.723c-3.387 9.555-5.731 19.602-6.883 30h-15.84c-8.285 0-15 6.715-15 15s6.715 15 15 15h15.84c1.152 10.398 3.492 20.445 6.883 30zm347 60c-57.898 0-105-47.102-105-105s47.102-105 105-105 105 47.102 105 105-47.102 105-105 105z"/><path d="m437 362h-45v-45c0-8.285-6.715-15-15-15s-15 6.715-15 15v60c0 8.285 6.715 15 15 15h60c8.285 0 15-6.715 15-15s-6.715-15-15-15z"/><path d="m136 182h-30c-8.285 0-15 6.715-15 15s6.715 15 15 15h30c8.285 0 15-6.715 15-15s-6.715-15-15-15z"/><path d="m136 242h-30c-8.285 0-15 6.715-15 15s6.715 15 15 15h30c8.285 0 15-6.715 15-15s-6.715-15-15-15z"/><path d="m136 302h-30c-8.285 0-15 6.715-15 15s6.715 15 15 15h30c8.285 0 15-6.715 15-15s-6.715-15-15-15z"/><path d="m227 212h30c8.285 0 15-6.715 15-15s-6.715-15-15-15h-30c-8.285 0-15 6.715-15 15s6.715 15 15 15z"/><path d="m227 272h30c8.285 0 15-6.715 15-15s-6.715-15-15-15h-30c-8.285 0-15 6.715-15 15s6.715 15 15 15z"/><path d="m136 362h-30c-8.285 0-15 6.715-15 15s6.715 15 15 15h30c8.285 0 15-6.715 15-15s-6.715-15-15-15z"/><path d="m347 212h30c8.285 0 15-6.715 15-15s-6.715-15-15-15h-30c-8.285 0-15 6.715-15 15s6.715 15 15 15z"/></g></svg>