<svg xmlns="http://www.w3.org/2000/svg" width="24" height="24" fill="none"><path d="M19.5 7.313h-3.187v-.375c0-2.38-1.93-4.312-4.312-4.312s-4.312 1.93-4.312 4.313v.375H4.5a.75.75.0 0 0-.75.75v12.563a.75.75.0 0 0 .75.75h15a.75.75.0 0 0 .75-.75V8.063a.75.75.0 0 0-.75-.75zM9.375 6.938c0-1.45 1.174-2.625 2.625-2.625s2.625 1.174 2.625 2.625v.375h-5.25v-.375zm9.188 12.75H5.438V9h2.25v2.063c0 .103.084.188.188.188h1.313c.103.0.188-.084.188-.187V9h5.25v2.063c0 .103.084.188.188.188h1.313c.103.0.188-.084.188-.187V9h2.25v10.688z" fill="#8c8c8c"/></svg>