<svg clip-rule="evenodd" fill-rule="evenodd" stroke-linejoin="round" stroke-miterlimit="1.41421" viewBox="0 0 30 30" xmlns="http://www.w3.org/2000/svg"><circle cx="15" cy="15" fill="#7bb82a" r="15"/><path d="m4.553 8.432c.34.0.597-.129.779-.399l4.242-6.486c.129-.199.188-.381.188-.557.0-.463-.352-.797-.826-.797-.323.0-.522.118-.721.428l-3.68 5.824-1.881-2.349c-.181-.223-.381-.323-.656-.323-.48.0-.826.34-.826.809.0.205.064.387.24.592l2.379 2.894c.205.246.445.364.762.364z" fill="#fff" fill-rule="nonzero" transform="matrix(1.31901 0 0 1.31901 7.78927 9.31179)"/></svg>