<svg fill="none" height="24" viewBox="0 0 24 24" width="24" xmlns="http://www.w3.org/2000/svg"><path d="m13.2139 12 6.1523-7.33359c.1032-.12188.0164-.30703-.1429-.30703h-1.8704c-.1101.0-.2156.04921-.2882.13359l-5.0743 6.04923-5.07417-6.04923c-.07031-.08438-.17578-.13359-.28828-.13359h-1.87032c-.15937.0-.24609.18515-.14296.30703l6.15233 7.33359-6.15233 7.3336c-.02311.0272-.03793.0604-.04271.0957-.00478.0354 68e-5.0713.01574.1037.01505.0323.03906.0596.06919.0787.03012.0191.06508.0291.10074.0289h1.87032c.11015.0.21562-.0492.28828-.1336l5.07417-6.0492 5.0743 6.0492c.0703.0844.1757.1336.2882.1336h1.8704c.1593.0.2461-.1851.1429-.307z" fill="#8c8c8c"/></svg>