<svg fill="none" height="24" viewBox="0 0 24 24" width="24" xmlns="http://www.w3.org/2000/svg"><path d="m13.2143 12 6.1523-7.33359c.1031-.12188.0164-.30703-.143-.30703h-1.8703c-.1101.0-.2156.04921-.2883.13359l-5.0742 6.04923-5.07421-6.04923c-.07031-.08438-.17578-.13359-.28828-.13359h-1.87031c-.15937.0-.24609.18515-.14297.30703l6.15237 7.33359-6.15237 7.3336c-.0231.0272-.03792.0604-.0427.0957-.00478.0354 68e-5.0713.01573.1037.01506.0323.03907.0596.06919.0787s.06509.0291.10075.0289h1.87031c.11016.0.21563-.0492.28828-.1336l5.07421-6.0492 5.0742 6.0492c.0703.0844.1758.1336.2883.1336h1.8703c.1594.0.2461-.1851.143-.307z" fill="#a8071a"/></svg>