<svg clip-rule="evenodd" fill-rule="evenodd" stroke-linejoin="round" stroke-miterlimit="1.41421" viewBox="0 0 569 569" xmlns="http://www.w3.org/2000/svg"><g fill="#8c8c8c" fill-rule="nonzero"><path d="m66.219 66.349v492.886c0 5.235 4.244 9.479 9.48 9.479h360.186c5.232.0 9.476-4.244 9.476-9.479v-398.097c0-.211-.102-.391-.121-.598-.047-.831-.211-1.651-.485-2.436-.105-.304-.179-.597-.312-.894-.461-1.031-1.101-1.972-1.897-2.776l-94.785-94.784c-.804-.801-1.749-1.441-2.787-1.898-.286-.121-.574-.222-.871-.312-.793-.273-1.617-.437-2.456-.492-.16.027-.347-.074-.547-.074h-265.401c-5.236.0-9.48 4.24-9.48 9.475zm346.783 85.309h-62.426v-62.426zm-327.828-75.829h246.447v85.309c0 5.232 4.244 9.475 9.476 9.475h85.308v379.146h-341.231z"/><path d="m464.32 492.885v18.955h28.435c5.235.0 9.479-4.24 9.479-9.475v-492.885c0-5.236-4.244-9.48-9.479-9.48h-360.186c-5.236.0-9.48 4.244-9.48 9.48v28.435h18.959v-18.96h341.227v473.93z"/><path d="m142.048 189.573h227.483v18.955H142.048z"/><path d="m142.048 132.699h75.829v18.959h-75.829z"/><path d="m142.048 246.443h151.658v18.959h-151.658z"/><path d="m312.662 246.443h56.87v18.959h-56.87z"/><path d="m142.048 303.312h227.483v18.959H142.048z"/><path d="m142.048 417.056h227.483v18.959H142.048z"/><path d="m227.353 360.186h142.179v18.955h-142.179z"/><path d="m142.048 360.186h66.349v18.955h-66.349z"/><path d="m142.048 473.93h37.915v18.955h-37.915z"/><path d="m198.918 473.93h170.613v18.955H198.918z"/></g></svg>