<svg viewBox="0 0 18 18" xmlns="http://www.w3.org/2000/svg" xmlns:xlink="http://www.w3.org/1999/xlink" xmlns:serif="http://www.serif.com/" style="fill-rule:evenodd;clip-rule:evenodd;stroke-linejoin:round;stroke-miterlimit:1.41421"><path d="M16.313 2.813H1.688C1.687 2.813 1.687 2.813 1.686 2.813 1.379 2.813 1.126 3.066 1.126 3.373 1.126 3.374 1.126 3.375 1.126 3.376v11.25C1.126 14.627 1.126 14.628 1.126 14.629 1.126 14.936 1.379 15.189 1.686 15.189 1.687 15.189 1.688 15.189 1.689 15.189H16.314C16.315 15.189 16.316 15.189 16.317 15.189 16.624 15.189 16.877 14.936 16.877 14.629 16.877 14.628 16.877 14.628 16.877 14.627V3.375C16.877 3.374 16.877 3.374 16.877 3.373 16.877 3.066 16.624 2.813 16.317 2.813 16.316 2.813 16.316 2.813 16.315 2.813H16.313zM15.61 4.76v9.162H2.39V4.76L1.905 4.382 2.595 3.494 3.347 4.079H14.651L15.403 3.494 16.093 4.382 15.606 4.76H15.61zM14.654 4.078 9 8.473 2.595 3.493 1.905 4.381 2.39 4.759 8.395 9.429C8.568 9.563 8.78 9.636 8.999 9.636 9.218 9.636 9.429 9.563 9.603 9.429L15.61 4.76 16.095 4.382 15.405 3.494 14.655 4.078H14.654z" style="fill:#373b2f;fill-rule:nonzero"/></svg>