<svg width="20" height="20" viewBox="0 0 20 20" fill="none" xmlns="http://www.w3.org/2000/svg">
<path d="M15.6568 4.34316C14.1458 2.83213 12.1369 2 10 2C7.86313 2 5.85413 2.83213 4.34316 4.34313C2.83213 5.85413 2 7.86314 2 10C2 12.1369 2.83213 14.1459 4.34316 15.6569C5.85413 17.1679 7.86313 18 10 18C12.1369 18 14.1458 17.1679 15.6569 15.6568C17.1678 14.1459 18 12.1369 18 9.99998C18 7.86311 17.1678 5.85413 15.6568 4.34316ZM5.00675 5.00676C5.71022 4.30329 6.53606 3.76672 7.43619 3.4165C7.19644 3.71582 6.97209 4.05985 6.7665 4.44679C6.52772 4.89616 6.32169 5.38969 6.15009 5.91685C5.55566 5.8182 5.00488 5.69688 4.51281 5.55451C4.66703 5.36494 4.83156 5.18194 5.00675 5.00676ZM3.94466 6.36204C4.52019 6.54632 5.17838 6.70173 5.89656 6.82482C5.69656 7.67376 5.57884 8.58729 5.55075 9.5308H2.95425C3.028 8.39851 3.36806 7.31789 3.94466 6.36204ZM3.89356 13.5512C3.34809 12.6169 3.02578 11.5674 2.95422 10.4692H5.55253C5.58322 11.3858 5.69859 12.2733 5.89184 13.1001C5.15891 13.2189 4.48419 13.3703 3.89356 13.5512ZM5.00675 14.9933C4.80738 14.7939 4.62169 14.5845 4.44953 14.3666C4.95963 14.2251 5.52987 14.1053 6.14372 14.0093C6.31653 14.5437 6.52478 15.0438 6.76647 15.4987C6.99053 15.9204 7.23688 16.2909 7.50116 16.6082C6.57584 16.2588 5.72713 15.7136 5.00675 14.9933ZM9.53075 16.9411C8.818 16.7415 8.14375 16.0906 7.59525 15.0583C7.40341 14.6973 7.23491 14.3035 7.09056 13.8837C7.86337 13.7987 8.68572 13.7484 9.53075 13.7366V16.9411V16.9411ZM9.53075 12.7981C8.59362 12.8108 7.68022 12.8697 6.82481 12.9701C6.63612 12.1901 6.52259 11.3458 6.49144 10.4693H9.53078V12.7981H9.53075ZM9.53075 9.53077H6.48966C6.51813 8.6297 6.63347 7.76186 6.82803 6.96198C7.67797 7.06823 8.58947 7.13285 9.53075 7.15135V9.53077ZM9.53075 6.21276C8.68244 6.19566 7.86191 6.14035 7.09456 6.0501C7.23803 5.63473 7.40522 5.24485 7.59525 4.88713C8.14372 3.85488 8.818 3.204 9.53075 3.00435V6.21276ZM16.0849 6.41188C16.6435 7.35542 16.9733 8.41811 17.0458 9.53077H14.4493C14.4215 8.59814 14.3061 7.69486 14.1103 6.85429C14.8332 6.73754 15.4995 6.58901 16.0849 6.41188ZM14.9932 5.00676C15.1816 5.19516 15.3576 5.39266 15.5218 5.59769C15.0195 5.73485 14.4602 5.85126 13.8592 5.94495C13.6858 5.40719 13.4766 4.90416 13.2335 4.44679C13.0279 4.05985 12.8036 3.71582 12.5638 3.4165C13.4639 3.76672 14.2898 4.30329 14.9932 5.00676ZM10.4692 10.4693H13.5086C13.4772 11.3526 13.3622 12.2033 13.1708 12.9884C12.321 12.8827 11.4099 12.8187 10.4692 12.8007V10.4693ZM10.4692 9.53077V7.15448C11.4069 7.14217 12.321 7.08382 13.1772 6.98373C13.3687 7.77757 13.4821 8.63786 13.5103 9.53077H10.4692ZM10.4692 3.00435H10.4692C11.182 3.204 11.8562 3.85488 12.4047 4.88713C12.5978 5.25048 12.7673 5.64707 12.9122 6.06988C12.1384 6.15463 11.3151 6.20454 10.4692 6.21595V3.00435V3.00435ZM10.4692 16.9411V13.7393C11.3167 13.7559 12.1367 13.8107 12.9037 13.9004C12.7606 14.3139 12.594 14.7021 12.4047 15.0583C11.8562 16.0906 11.182 16.7415 10.4692 16.9411ZM14.9932 14.9933C14.2729 15.7136 13.4242 16.2588 12.4988 16.6082C12.7631 16.2908 13.0094 15.9204 13.2335 15.4987C13.4716 15.0506 13.6772 14.5585 13.8485 14.0329C14.4568 14.1333 15.0195 14.2575 15.5208 14.4035C15.357 14.6081 15.1813 14.8052 14.9932 14.9933ZM16.0814 13.5941C15.4991 13.4068 14.8314 13.2493 14.1025 13.125C14.2992 12.2912 14.4165 11.395 14.4475 10.4693H17.0458C16.9731 11.5842 16.6422 12.6491 16.0814 13.5941Z" fill="#8C8C8C"/>
</svg>
