<?xml version="1.0" encoding="UTF-8" standalone="no"?>
<!DOCTYPE svg PUBLIC "-//W3C//DTD SVG 1.1//EN" "http://www.w3.org/Graphics/SVG/1.1/DTD/svg11.dtd">
<svg width="100%" height="100%" viewBox="0 0 20 20" version="1.1" xmlns="http://www.w3.org/2000/svg" xmlns:xlink="http://www.w3.org/1999/xlink" xml:space="preserve" xmlns:serif="http://www.serif.com/" style="fill-rule:evenodd;clip-rule:evenodd;stroke-linejoin:round;stroke-miterlimit:1.41421;">
    <g transform="matrix(0.03125,0,0,0.03125,2,2)">
        <path d="M176.344,118.84L240.84,118.84L240.84,44.108C215.311,65.337 192.43,90.545 176.344,118.84Z" style="fill:rgb(140,140,140);fill-rule:nonzero;"/>
        <path d="M141.632,269.24C143.35,300.615 150.341,334.459 162.114,362.76L240.84,362.76L240.84,269.24L141.632,269.24Z" style="fill:rgb(140,140,140);fill-rule:nonzero;"/>
        <path d="M176.744,393.16C192.83,421.455 215.312,446.662 240.84,467.892L240.84,393.16L176.744,393.16Z" style="fill:rgb(140,140,140);fill-rule:nonzero;"/>
        <path d="M489.874,149.24L382.251,149.24C392.774,177.795 398.73,207.701 400.269,238.84L512,238.84C510.129,206.912 502.471,176.971 489.874,149.24Z" style="fill:rgb(140,140,140);fill-rule:nonzero;"/>
        <path d="M271.24,44.443L271.24,118.84L335.252,118.84C319.205,90.616 296.684,65.64 271.24,44.443Z" style="fill:rgb(140,140,140);fill-rule:nonzero;"/>
        <path d="M162.114,149.24C150.341,177.541 143.35,207.465 141.632,238.84L240.84,238.84L240.84,149.24L162.114,149.24Z" style="fill:rgb(140,140,140);fill-rule:nonzero;"/>
        <path d="M400.269,269.24C398.731,300.379 392.775,334.205 382.251,362.76L489.873,362.76C502.471,335.029 510.128,301.168 511.999,269.24L400.269,269.24Z" style="fill:rgb(140,140,140);fill-rule:nonzero;"/>
        <path d="M271.24,0L271.24,6.835C312.834,36.253 347.115,74.547 369.141,118.84L473.698,118.84C431.075,50.912 355.958,4.966 271.24,0Z" style="fill:rgb(140,140,140);fill-rule:nonzero;"/>
        <path d="M38.302,118.84L142.859,118.84C164.885,74.547 199.248,36.253 240.84,6.835L240.84,0C156.123,4.966 80.925,50.912 38.302,118.84Z" style="fill:rgb(140,140,140);fill-rule:nonzero;"/>
        <path d="M142.859,393.16L38.302,393.16C80.925,461.088 156.123,507.034 240.84,512L240.84,505.165C199.248,475.747 164.885,437.453 142.859,393.16Z" style="fill:rgb(140,140,140);fill-rule:nonzero;"/>
        <path d="M22.126,149.24C9.529,176.971 1.871,206.912 0,238.84L111.731,238.84C113.269,207.701 119.227,177.795 129.75,149.24L22.126,149.24Z" style="fill:rgb(140,140,140);fill-rule:nonzero;"/>
        <path d="M369.141,393.16C347.115,437.453 312.834,475.747 271.24,505.165L271.24,512C355.957,507.034 431.075,461.088 473.698,393.16L369.141,393.16Z" style="fill:rgb(140,140,140);fill-rule:nonzero;"/>
        <path d="M111.731,269.24L0,269.24C1.871,301.168 9.529,335.028 22.126,362.76L129.75,362.76C119.227,334.205 113.269,300.379 111.731,269.24Z" style="fill:rgb(140,140,140);fill-rule:nonzero;"/>
        <path d="M271.24,269.24L271.24,362.76L349.957,362.76C361.725,334.47 368.552,300.601 370.269,269.24L271.24,269.24Z" style="fill:rgb(140,140,140);fill-rule:nonzero;"/>
        <path d="M349.957,149.24L271.24,149.24L271.24,238.84L370.269,238.84C368.552,207.48 361.725,177.53 349.957,149.24Z" style="fill:rgb(140,140,140);fill-rule:nonzero;"/>
        <path d="M271.24,393.16L271.24,467.557C296.684,446.36 319.205,421.384 335.252,393.16L271.24,393.16Z" style="fill:rgb(140,140,140);fill-rule:nonzero;"/>
    </g>
</svg>
