<svg fill="none" height="24" viewBox="0 0 24 24" width="24" xmlns="http://www.w3.org/2000/svg"><path d="m22.1839 11.8362-9.0563-9.05152-.607-.60703c-.1383-.1374-.3254-.21452-.5203-.21452-.195.0-.382.07712-.5203.21452l-9.6633 9.65855c-.14173.1412-.25373.3093-.32941.4945s-.11349.3836-.11122.5837c.00938.825.6961 1.4836 1.5211 1.4836h.99609v7.6336h16.21404V14.398h1.0172c.4008.0.7781-.1571 1.0617-.4407.1397-.1392.2503-.3047.3255-.4869.0753-.1823.1136-.3776.1128-.5748.0-.3984-.157-.7758-.4406-1.0594zm-8.8711 8.5079h-2.625v-4.7813h2.625zm5.107-7.6336v7.6336h-3.607v-5.3438c0-.518-.4195-.9375-.9375-.9375h-3.75c-.51798.0-.93751.4195-.93751.9375v5.3438h-3.60703v-7.6336h-2.25l8.67184-8.66488.5414.5414 8.1282 8.12348z" fill="#8c8c8c"/></svg>