<svg xmlns="http://www.w3.org/2000/svg" width="20" height="20" fill="none"><path d="M17.13 4.662l-2.08-2.078c-.254-.254-.594-.396-.953-.396s-.7.14-.953.396l-2.24 2.236a1.35 1.35.0 0 0-.396.955 1.34 1.34.0 0 0 .396.955l1.75 1.752a7.92 7.92.0 0 1-1.687 2.486c-.717.72-1.555 1.29-2.484 1.69l-1.75-1.752c-.254-.254-.594-.397-.953-.397-.177-.001-.353.034-.517.102a1.33 1.33.0 0 0-.437.294l-2.242 2.236a1.35 1.35.0 0 0-.396.955 1.34 1.34.0 0 0 .396.955l2.078 2.078a2.34 2.34.0 0 0 1.645.682 2.19 2.19.0 0 0 .375-.031c2.586-.426 5.152-1.803 7.225-3.873s3.445-4.64 3.875-7.23a2.33 2.33.0 0 0-.65-2.02h0zm-.734 1.787c-.38 2.303-1.62 4.6-3.484 6.465s-4.16 3.104-6.463 3.484a.92.92.0 0 1-.797-.258L3.61 14.1l2.164-2.166 2.357 2.36.422-.156a9.4 9.4.0 0 0 5.58-5.582l.156-.422-2.36-2.357 2.164-2.166 2.04 2.04c.21.21.31.508.26.797z" fill="#8c8c8c"/></svg>