<?xml version="1.0" encoding="UTF-8" standalone="no"?>
<!DOCTYPE svg PUBLIC "-//W3C//DTD SVG 1.1//EN" "http://www.w3.org/Graphics/SVG/1.1/DTD/svg11.dtd">
<svg width="100%" height="100%" viewBox="0 0 20 20" version="1.1" xmlns="http://www.w3.org/2000/svg" xmlns:xlink="http://www.w3.org/1999/xlink" xml:space="preserve" xmlns:serif="http://www.serif.com/" style="fill-rule:evenodd;clip-rule:evenodd;stroke-linejoin:round;stroke-miterlimit:1.41421;">
    <g transform="matrix(-0.0311355,0,0,0.0312158,17.9962,1.98316)">
        <path d="M499.66,376.96L427.98,305.28C402.38,279.68 358.86,289.921 348.62,323.2C340.94,346.241 315.34,359.041 292.3,353.92C241.1,341.12 171.98,274.56 159.18,220.8C151.5,197.759 166.86,172.159 189.9,164.48C223.18,154.24 233.42,110.72 207.82,85.12L136.14,13.44C115.66,-4.48 84.94,-4.48 67.02,13.44L18.38,62.08C-30.26,113.28 23.5,248.96 143.82,369.28C264.14,489.6 399.82,545.921 451.02,494.72L499.66,446.08C517.581,425.6 517.581,394.88 499.66,376.96Z" style="fill:rgb(140,140,140);fill-rule:nonzero;"/>
    </g>
</svg>
