<svg fill="none" height="24" viewBox="0 0 24 24" width="24" xmlns="http://www.w3.org/2000/svg"><path d="m12 3.28125c-4.81406.0-8.71875 3.90469-8.71875 8.71875.0 4.8141 3.90469 8.7188 8.71875 8.7188 4.8141.0 8.7188-3.9047 8.7188-8.7188.0-4.81406-3.9047-8.71875-8.7188-8.71875zm4.5 9.28125c0 .1031-.0844.1875-.1875.1875H12.75v3.5625c0 .1031-.0844.1875-.1875.1875h-1.125c-.1031.0-.1875-.0844-.1875-.1875V12.75H7.6875c-.10313.0-.1875-.0844-.1875-.1875v-1.125c0-.1031.08437-.1875.1875-.1875H11.25V7.6875c0-.10313.0844-.1875.1875-.1875h1.125c.1031.0.1875.08437.1875.1875V11.25h3.5625c.1031.0.1875.0844.1875.1875z" fill="#d9f7be"/><path d="m16.3125 11.25H12.75V7.6875c0-.10313-.0844-.1875-.1875-.1875h-1.125c-.1031.0-.1875.08437-.1875.1875V11.25H7.6875c-.10313.0-.1875.0844-.1875.1875v1.125c0 .1031.08437.1875.1875.1875H11.25v3.5625c0 .1031.0844.1875.1875.1875h1.125c.1031.0.1875-.0844.1875-.1875V12.75h3.5625c.1031.0.1875-.0844.1875-.1875v-1.125c0-.1031-.0844-.1875-.1875-.1875z" fill="#237804"/></svg>