<?xml version="1.0" encoding="UTF-8" standalone="no"?>
<!DOCTYPE svg PUBLIC "-//W3C//DTD SVG 1.1//EN" "http://www.w3.org/Graphics/SVG/1.1/DTD/svg11.dtd">
<svg width="100%" height="100%" viewBox="0 0 24 24" version="1.1" xmlns="http://www.w3.org/2000/svg" xmlns:xlink="http://www.w3.org/1999/xlink" xml:space="preserve" xmlns:serif="http://www.serif.com/" style="fill-rule:evenodd;clip-rule:evenodd;stroke-linejoin:round;stroke-miterlimit:1.41421;">
    <rect x="0" y="0" width="24" height="24" style="fill:none;fill-rule:nonzero;"/>
    <path d="M19,6L17,6C17,3.24 14.76,1 12,1C9.24,1 7,3.24 7,6L5,6C3.9,6 3,6.9 3,8L3,20C3,21.1 3.9,22 5,22L19,22C20.1,22 21,21.1 21,20L21,8C21,6.9 20.1,6 19,6ZM12,3C13.66,3 15,4.34 15,6L9,6C9,4.34 10.34,3 12,3ZM19,20L5,20L5,8L19,8L19,20ZM12,12C10.34,12 9,10.66 9,9L7,9C7,11.76 9.24,14 12,14C14.76,14 17,11.76 17,9L15,9C15,10.66 13.66,12 12,12Z" style="fill:white;fill-rule:nonzero;"/>
</svg>
